<svg xmlns="http://www.w3.org/2000/svg" viewBox="0 0 678 678"><defs><style>.cls-1{fill:#e8511d;}.cls-2{fill:none;}</style></defs><title>RED TEXTIL_1</title><g id="Capa_2" data-name="Capa 2"><g id="Capa_1-2" data-name="Capa 1"><path class="cls-1" d="M548,310.49a215.29,215.29,0,0,0-12-50.58c-15.52-41.52-41.81-75.32-79.95-100-52-33.63-109-42.89-169.48-28.09C226.91,146.43,182.76,181.15,154,233.28c-21.14,38.29-28.27,79.52-24.7,122.5a220.94,220.94,0,0,0,16.94,68.44c17.93,42.18,46.21,76.17,86.81,100.26,29.35,17.41,61.39,26.58,95.81,28.25,27.19,1.32,53.7-2.18,79.25-11.26,50.7-18,88.12-50.7,113.38-96.28,18.91-34.13,27.85-70.75,28.13-110.67C549.41,327.37,549,318.92,548,310.49Zm-6.35,43.91c-4.16,44.1-19.35,84.22-48.09,119.12-28.94,35.16-66.27,58-111.9,68a202.18,202.18,0,0,1-42.47,4.58c-61.92-1.19-113-24.22-152.74-70-20.53-23.66-34.31-50.74-42.66-80.39a218,218,0,0,1-7.27-81.34c2.88-29.15,11.2-56.71,25.95-82.38q28.82-50.14,81.42-77.37a197.92,197.92,0,0,1,67.27-21c42-5.22,82.28.66,119.93,19.66,54.15,27.33,88.34,70.11,104,126.62A205.09,205.09,0,0,1,541.65,354.4Z"/><path class="cls-1" d="M257.4,169.87a16.42,16.42,0,0,1,2.21.1c7.91.64,11.41,3.85,12.53,11.39a68.65,68.65,0,0,1,.74,9.91c.05,13.9.1,27.81.05,41.71,0,9,.32,17.92-.38,26.87-.68,8.76-3.26,11.66-12.13,13.31-1.29.24-1,1-1,1.69-.1,1.12.72,1,1.46,1,12.94,0,25.88,0,38.83,0,1.42,0,1.48-.6,1.47-1.65,0-1.57-1.34-1.09-2.09-1.23-5.3-1.06-8-3.56-8.83-8.66a35,35,0,0,1-.52-5.68c0-13.62,0-27.24,0-40.86h0c0-14.39,0-28.79,0-43.19,0-1.49.26-2.23,2.09-2.34a119.52,119.52,0,0,1,17.85-.15c9.63.83,17,5,21,13.83a25.46,25.46,0,0,1,2,8.41c.09,1.15.55,1.53,1.77,1.51q7.85-.09,15.67,0c1.19,0,1.52-.33,1.37-1.46-1.46-10.47-6.84-18.33-16.83-23A46.61,46.61,0,0,0,315.23,167c-19.27-.2-38.53-.11-57.8-.16-1.18,0-1.68.23-1.68,1.49S256.18,170,257.4,169.87Z"/><path class="cls-1" d="M379.71,296.6c1-.13,2-.14,2-1.64s-1.07-1.4-2.06-1.54a27.86,27.86,0,0,1-10.36-3.35A48.23,48.23,0,0,1,357,279.29c-5.63-6.62-10.43-13.81-15.44-20.85-7.26-10.18-14.47-20.39-21.88-30.85a55.41,55.41,0,0,0,11.78-3.42c7.67-3.24,13.78-8,16.84-15.81.45-1.15.61-1.71-1.09-1.67-4.41.09-8.82,0-13.23,0a2.12,2.12,0,0,0-2.42,1.49c-3,7.28-8.51,12-16.32,14.27-6.53,1.9-13.24,1.52-19.92,1.46-2.76,0-2.79,0-2.66,2.68,0,.71-.5,1.7,1,1.84,6.49.61,11.1,4.13,14.66,9.1,5.95,8.31,11.82,16.67,17.75,25,5.64,7.91,10.95,16.09,18.16,22.83C354.13,294.57,366,298.26,379.71,296.6Z"/><path class="cls-1" d="M275.63,330.91a7.46,7.46,0,0,1,6.21,3.42c3.11,4.45,6.37,8.8,9.4,13.29,3.25,4.84,7.82,6.79,13.67,6.39,1.1-.07,2.2-.07,3.3-.15.53,0,1.24.22,1.36-.65s-.18-1.11-1-1.32a12.23,12.23,0,0,1-5.95-4.18c-4.6-5.23-8.59-10.9-13-16.61,1.07-.39,2-.68,2.83-1,7-2.81,10.59-8.82,8.76-15.36-1.65-5.89-6.45-8.43-12.22-9.21-9.05-1.22-18.19-.35-27.3-.52-.41,0-.94-.07-1,.54s-.15,1,.55,1.22c2.83.81,3.13,3.1,3.34,5.38.64,7.11.27,14.24.23,21.36,0,4.37.29,8.75-.22,13.1-.27,2.22-.78,4.39-3.26,5.36a1,1,0,0,0-.67,1.34c.15.72.81.46,1.26.46q7.6,0,15.21,0c.45,0,1.09.27,1.27-.46s-.12-1-.79-1.26a5.21,5.21,0,0,1-3.33-5.06c-.13-4.93-.07-9.87-.15-14.81C274.16,331.1,274.63,330.88,275.63,330.91Zm-1.47-4.67c.09-2.54,0-5.08,0-7.61h0c0-2.61-.08-5.22,0-7.83.09-2.35.93-3.1,3.4-3.23a21,21,0,0,1,5.48.23c6.23,1.29,9.31,5.27,8.82,11.44-.42,5.26-4.27,8.65-10.34,9-1.83.11-3.67-.05-5.5,0C274.51,328.33,274.11,327.63,274.16,326.24Z"/><path class="cls-1" d="M404.88,306.24c-10.16-2.39-20.5-.82-30.75-1.26-.43,0-.93,0-.92.61,0,.47-.11,1,.61,1.16,2.66.71,3.12,2.91,3.23,5,.65,11.56.41,23.13.06,34.69-.07,2.23-.84,4.35-3.15,5.47-.66.32-.87.7-.73,1.31.19.85.93.52,1.44.52,4,0,7.94,0,11.91,0v.13c2.35,0,4.7,0,7.05,0a35.75,35.75,0,0,0,16.22-3.29c9.35-4.52,14.38-14.05,13.17-25.15C422,316.09,415,308.62,404.88,306.24Zm4.84,36.83c-4,6.17-10,8.67-17.42,8.17-3.68-.26-5.47-2-5.53-5.57-.09-5.64,0-11.28,0-16.92h0c0-5.57,0-11.14,0-16.71,0-3.4,1.07-4.36,4.61-4.51,12.67-.51,20.92,6.51,22,18.67C413.84,332.16,413.1,337.89,409.72,343.07Z"/><path class="cls-1" d="M354.13,415.74c0-.61-.05-1.05-.82-1.25-3.18-.82-5.22-3.07-7.06-5.48-4.85-6.38-9.63-12.81-14.48-19.19a1.83,1.83,0,0,1,0-2.72c4.47-5.24,8.86-10.55,13.32-15.8a12.09,12.09,0,0,1,6.25-4.13c.8-.21,1.27-.51,1.15-1.44s-.89-.75-1.49-.75c-4,0-8.08,0-12.13,0-.49,0-1.15-.16-1.27.5s-.18,1.15.48,1.51c2.38,1.33,1.82,3.25.81,4.95-2.88,4.85-6.59,9.13-10.49,13.64-3.39-4.79-6.61-9.25-9.73-13.78-1.11-1.62-1.89-3.28-.18-5.2,1-1.09.18-1.71-1.24-1.69-5.73.06-11.47.06-17.21.11-.56,0-1.37-.35-1.47.73-.09.91.38,1.25,1.18,1.45a10.44,10.44,0,0,1,5.9,4.2c4.65,6.17,9.23,12.38,13.89,18.54a1.92,1.92,0,0,1,0,2.77c-4.67,5.81-9.31,11.64-14.29,17.21a14.78,14.78,0,0,1-6.22,4.59c-.86.28-.92.82-.84,1.47.11.84.84.64,1.39.64,3.38,0,6.76,0,10.14,0,1.74,0,1.95-.73,1-1.91a3.41,3.41,0,0,1-.06-4.34c3.73-5.56,8-10.74,12.26-16.18,3.73,5.21,7.34,10.18,10.87,15.2,1.19,1.71,2.22,3.49.88,5.67-.57.93-.07,1.57,1.19,1.56,5.66,0,11.33,0,17,0C353.54,416.58,354.12,416.58,354.13,415.74Z"/><path class="cls-1" d="M282.48,404.44c-1.23-.43-1.82.11-2.37,1.14a14.41,14.41,0,0,1-10.31,7.55,45.84,45.84,0,0,1-11.63.65c-3.87-.19-5.84-1.92-6-5.67-.23-5.28-.12-10.58-.26-15.87,0-1.31.74-1.3,1.65-1.29,3.83,0,7.65,0,11.47.12,2.89.11,5.33,1.12,6.28,4.09.24.75.58,1.19,1.54,1.09,1.21-.12.89-.93.89-1.56,0-3.32.05-6.64,0-9.95,0-.64.58-1.63-.79-1.83-1.07-.15-1.37.47-1.69,1.24a5.71,5.71,0,0,1-4.85,3.49c-4.39.65-8.81.23-13.22.34-1.07,0-1.17-.52-1.16-1.32,0-5.22,0-10.44.1-15.66,0-2.24,1.13-3.21,3.44-3.26a82.2,82.2,0,0,1,8.6.07c5.63.46,11.07,1.41,13.42,7.42.42,1.07,1.37.58,2.1.54,1,0,.59-.77.53-1.27-.28-2.67-.67-5.33-.86-8-.08-1.19-.52-1.55-1.72-1.55q-19.41,0-38.83-.07c-.59,0-1.25-.11-1.23.77,0,.54-.1,1,.72,1.3,2.59.82,3.15,2.94,3.37,5.2.34,3.59.28,7.19.27,10.79,0,8.47.19,16.94-.23,25.4-.11,2.34-.46,4.72-3,5.92-.8.37-1.45.72-1.24,1.68s1.18.61,1.81.62c6.54,0,13.09,0,19.63,0v0c6.55,0,13.1-.08,19.64.05,1.93,0,2.56-.7,2.83-2.34.43-2.64,1-5.26,1.47-7.9C282.9,405.75,283.78,404.9,282.48,404.44Z"/><path class="cls-1" d="M321.92,351.79c-.59.34-1.5.31-1.27,1.35s1.18.61,1.79.62c6,0,12.06,0,18.09,0h0c5.88,0,11.76,0,17.65,0,1.65,0,2.53-.3,2.81-2.06.4-2.5,1.16-4.94,1.71-7.43.14-.65.91-1.56-.21-2s-1.8.05-2.37,1.17c-2.07,4.08-5.61,6.39-10.21,7.27a46.1,46.1,0,0,1-9.89.5c-3.71-.11-5.68-1.94-5.76-5.57-.11-4.94,0-9.88,0-14.82,0-1,.27-1.38,1.35-1.36,3.61.08,7.21,0,10.81.13,2.58.09,4.7,1.11,5.7,3.61.28.71.4,1.56,1.58,1.3s.78-1.14.79-1.72c0-3.31-.07-6.63-.1-9.94,0-.52.05-1-.69-1.09s-1.09,0-1.36.73c-1.24,3.22-4,4.1-7.22,4.1s-6.32-.06-9.48,0c-1.08,0-1.39-.33-1.38-1.32,0-5,0-10,0-15,0-1.86,1.07-2.68,2.9-2.72a62.05,62.05,0,0,1,11.88.44c3.86.66,7.17,2.17,8.69,6,.37.92.93,1.08,1.87.88,1.24-.26.66-1.1.61-1.67-.2-2.11-.58-4.2-.71-6.31-.1-1.53-.71-2-2.31-2-11.47.07-22.94,0-34.42.05h-1.1c-.46,0-.88.07-.9.67,0,.43-.07.9.48,1,3.19.8,3.31,3.34,3.34,5.73.1,9.1.08,18.21.09,27.31,0,2.33,0,4.66-.13,7C324.45,348.73,323.93,350.66,321.92,351.79Z"/><path class="cls-1" d="M420.09,367.45c-.06-2.23-1.06-2.6-3.11-2.57-7.5.11-15,.05-22.51.05v0c-7.87,0-15.74,0-23.6,0-.9,0-1.95-.3-2.07,1.18-.26,3.38-.65,6.74-1,10.12,0,.5-.31,1.22.65,1.26.69,0,1.5.36,1.92-.54.14-.33.29-.65.41-1,1.81-4.89,5.43-7.58,10.78-8.07,1.83-.17,3.68-.09,5.5-.28s2.34.6,2.33,2.3c-.05,12.2,0,24.41,0,36.62a14.51,14.51,0,0,1-.76,4.79,4.4,4.4,0,0,1-2.83,3c-.85.28-1.24.66-1.09,1.5.17,1,1,.66,1.57.66q8.18,0,16.33,0c.58,0,1.41.3,1.48-.75a1.11,1.11,0,0,0-.91-1.39,4.79,4.79,0,0,1-3.18-3.75,25,25,0,0,1-.57-6.73c0-10.23-.09-20.47,0-30.7.07-6.71-.79-5.72,6.27-5.46,5.85.22,10.3,2.64,12.25,8.3a4.33,4.33,0,0,0,.54,1.15c.56.75,1.36.34,2,.24s.47-.74.42-1.19C420.67,373.35,420.17,370.41,420.09,367.45Z"/><path class="cls-1" d="M209.29,367.83c5.45.7,9.33,3.15,11.1,8.3.07.2.17.39.23.59.35,1.18,1.27.91,2.14.81,1.13-.14.67-.91.61-1.46-.33-3.08-.82-6.16-1-9.25-.1-1.66-.84-1.92-2.35-1.91-7.72.06-15.44,0-23.16,0v0H193.1q-9.93,0-19.85,0c-1.11,0-2,0-2.12,1.45-.26,3.3-.65,6.6-1,9.9-.06.62-.22,1.32.83,1.36.71,0,1.5.3,1.82-.67.11-.33.29-.65.41-1,1.71-4.64,5.15-7.19,10.18-8,2-.31,4.1-.19,6.15-.33,1.69-.12,2.3.38,2.28,2.11-.08,7.4,0,14.81,0,22.22,0,5.29.06,10.59-.1,15.88-.08,2.79-.62,5.57-3.95,6.67-.8.27-.68.84-.64,1.37.07.86.81.66,1.35.66q8.39,0,16.77,0c.55,0,1.25.17,1.34-.7.07-.67,0-1.15-.86-1.43-2-.65-2.88-2.27-3.38-4.12a21,21,0,0,1-.48-5.47V374C201.87,367,202.06,366.9,209.29,367.83Z"/><path class="cls-1" d="M379.77,229.92c-1.57.72-2.64,1.85-1.83,3.73s2,2.45,4.14,1.83c8.64-2.47,17.47-2.84,26.4-2.14,1.54.13,1.69.5.94,1.76-2.47,4.16-4.81,8.39-7.23,12.58q-10.45,18.1-20.93,36.2a8.65,8.65,0,0,0-1.55,4.7A36.42,36.42,0,0,0,384,283c10.46-15.23,21-30.43,31-45.89,1.26-1.94,2.41-2.55,4.52-1.56,1.86.88,3,0,4-1.52a2.44,2.44,0,0,0-1-3.65c-1.56-.88-1.24-1.52-.42-2.72q7-10.26,13.81-20.62c1.35-2,2.48-4.17,1.91-6.75-.82-3.68-4.32-5-7.54-2.77a9.72,9.72,0,0,0-2.85,3.71c-4.32,8.16-8.66,16.31-12.9,24.51-.75,1.44-1.46,2.1-3.29,1.78a66.36,66.36,0,0,0-18.67-.38C388.22,227.59,383.81,228.06,379.77,229.92Zm40.73-9a148,148,0,0,1,9.09-16.56,14.51,14.51,0,0,1,2-2.22,1.35,1.35,0,0,1,1.59-.39c.64.31.54.92.5,1.67a9.54,9.54,0,0,1-.45,1.21,103.51,103.51,0,0,1-11.09,17.17c-.47.59-1,1.79-2,1.23C419.43,222.59,420.18,221.58,420.5,220.93Z"/><path class="cls-1" d="M350.25,265.56c3,3.35,5.39,7.16,8.05,10.77l.6-.23c0-.26.05-.51.05-.77q0-32.26-.07-64.54c0-4.1,0-4-4.43-4.12-1.36,0-2.13.25-2.56,1.6a23.17,23.17,0,0,1-4.31,7.56,3.71,3.71,0,0,0-.9,2.5c.05,11.71.17,23.42,0,35.13C346.56,258,347,261.94,350.25,265.56Z"/><path class="cls-1" d="M347.71,198.8c-15.07,0-30.14,0-45.21,0-2,0-2.6.59-2.69,2.49-.21,4.57-.7,9.14-1,13.71,0,.69-.58,1.62.64,1.93a1.72,1.72,0,0,0,2.33-1.25,16.09,16.09,0,0,1,2.21-4.12c4.11-5.49,9.91-7.37,16.68-7.37,13.82,0,27.64-.08,41.46-.06,5.29,0,10.59-.18,15.85.56,6.49.91,10.84,4.35,13.21,10.16a15.74,15.74,0,0,1,1.25,3.81c.24,1.73,1.43,1.24,2.43,1.24,1.42,0,.88-1.08.86-1.71-.15-5.71-.42-11.42-.53-17.13,0-1.74-.65-2.23-2.46-2.22-15,.06-30,0-45,0Z"/><path class="cls-1" d="M514.13,404.34c-.62-.15-1.33-.39-1.83.25a7.57,7.57,0,0,0-.65,1.1,14.45,14.45,0,0,1-10.79,7.58,36.89,36.89,0,0,1-11.2.18,4.63,4.63,0,0,1-4-3.43,12.08,12.08,0,0,1-.39-3.78q0-15.76,0-31.54a22.6,22.6,0,0,1,.32-3.37c.32-2,1.19-3.66,3.33-4.34a1,1,0,0,0,.85-1.22c0-.81-.52-.88-1.17-.88l-16.76,0c-.52,0-1.12-.07-1.11.66,0,.51-.25,1.15.6,1.38,3,.81,3.63,3.18,3.7,5.63.37,12.06.24,24.13,0,36.19-.05,2.27-.72,4.55-3.19,5.65-.82.36-1.45.63-1.19,1.61s1.2.57,1.82.58c6.17,0,12.35,0,18.53,0v0q9.48,0,19,0c.9,0,1.93.25,2.22-1.11.69-3.32,1.5-6.61,2.24-9.92C514.55,405.11,514.91,404.53,514.13,404.34Z"/><path class="cls-1" d="M453.54,414.6c-4-1.29-4-4.55-4-7.66-.07-10.66-.06-21.31,0-32a22,22,0,0,1,.45-4.2,4.61,4.61,0,0,1,2.94-3.7c.73-.27,1.08-.56,1-1.34-.09-1-.86-.77-1.46-.78-2.58,0-5.15,0-7.73,0v0h-8.38c-.55,0-1.28-.21-1.29.69,0,.45-.22,1.08.44,1.28,3.48,1.05,3.86,3.86,3.88,6.64q.09,17.36-.06,34.72c0,2.65-.64,5.27-3.76,6.35-.81.28-.61.87-.59,1.39,0,.77.69.59,1.15.59,5.59,0,11.18,0,16.77,0,.49,0,1.12.1,1.08-.68C453.94,415.43,454.22,414.82,453.54,414.6Z"/><path class="cls-1" d="M197.23,296.47c19.34,0,38.69.41,58-.36,1.16-.05,3.09.28,3.1-1.17,0-1.7-2-1.21-3.17-1.25-5.07-.17-10.15-.23-15.22-.24-24.79-.05-49.57-.38-74.35.5a16.27,16.27,0,0,0-5.6.79c.9,1.1,1.92.95,2.83,1C174.29,296.7,185.77,296.49,197.23,296.47Z"/><path class="cls-1" d="M517.4,294.13a24.5,24.5,0,0,0-2.85-.2c-14.26-.74-28.53-.37-39-.52-11.92,0-20,0-28.1,0-7.13.05-14.26.14-21.39.36-1.15,0-3.33-.48-3.33,1.07s2.14,1.26,3.43,1.3c23.24.65,46.48.33,69.72.27,7.13,0,14.27,0,21.38-.74.63-.06,1.57,0,1.63-.74S518,294.23,517.4,294.13Z"/><path class="cls-1" d="M385.14,284.84c-.88,1.51-2,2.9-3,4.36a2.69,2.69,0,0,0,.61.38c.69.22,1.39.43,2.1.59a75.4,75.4,0,0,0,29.74.62,23.33,23.33,0,0,0,7.94-2.38,2.6,2.6,0,0,0,1.2-3.8c-.8-1.47-1.84-2.48-3.86-1.62a22.21,22.21,0,0,1-4.19,1.24,76,76,0,0,1-28.67.32C386.39,284.45,385.74,283.81,385.14,284.84Z"/><path class="cls-1" d="M387.88,281c-.93,1.57-.26,1.74,1,1.91a108.65,108.65,0,0,0,12.5.92c5.51-.1,11-.43,16.3-2,1-.32,1.56-.62,1.41-1.85a72.56,72.56,0,0,1-.49-7.37c0-1.74-.57-2.13-2.28-1.36a86.3,86.3,0,0,1-23.3,6.62C390.63,278.17,389.09,278.92,387.88,281Z"/><path class="cls-1" d="M397.88,434.44c0-1.48-.19-2.08-2-2.07s-2.23.47-2.17,2.11c.13,3.26,0,6.53,0,9.79l-.5.1c-2.16-3.14-4.49-6.18-6.42-9.45-1.26-2.12-2.86-2.68-5.18-2.5-1.06.08-1.36.34-1.35,1.35.05,5.57.1,11.13,0,16.7,0,1.79.82,1.85,2.25,1.87s2.11-.22,2.05-1.82c-.13-3.68,0-7.37,0-11.63.59.82.83,1.14,1.05,1.47,2.45,3.59,4.94,7.16,7.31,10.8,1.12,1.71,2.76,1.09,4.15,1s.71-1.49.72-2.26C397.89,444.73,397.79,439.59,397.88,434.44Z"/><path class="cls-1" d="M358.27,432.12c-6-.1-11.08,4.51-11.13,10a10.5,10.5,0,0,0,10.68,10.4c6.14.1,10.92-4.23,11-10S364.31,432.22,358.27,432.12ZM358,448.8a6.63,6.63,0,0,1-6.59-6.57,6.42,6.42,0,0,1,6.8-6.3,6.69,6.69,0,0,1,6.52,6.43A6.59,6.59,0,0,1,358,448.8Z"/><path class="cls-1" d="M332.51,441.85a14.53,14.53,0,0,1-2,0c-1.63-.24-2.06.3-2.08,1.93,0,1.94,1.19,1.47,2.27,1.59.66.07,1.59-.36,1.82.67s-.38,1.46-1.12,1.86a7.07,7.07,0,0,1-1.6.68,6.72,6.72,0,0,1-7.9-3.06,6.23,6.23,0,0,1,1.46-8.07,6.87,6.87,0,0,1,9.05.1c1.87,1.63,2.28-.11,3.16-.84,1.28-1.08,0-1.59-.65-2.09a11.68,11.68,0,0,0-14.57.14A10,10,0,0,0,318.69,448a11.41,11.41,0,0,0,13.89,3.61c2.64-1.18,4.35-2.72,4.07-6C336.32,441.87,336.57,441.85,332.51,441.85Z"/><path class="cls-1" d="M406.94,235.11c-7.83-.4-15.36-.25-22.77,1.68-1.26.33-1.8.63-1.5,2.1a30.38,30.38,0,0,1,.54,6.32c0,1.46.54,1.6,1.81,1.38a134.26,134.26,0,0,0,13.85-3.35C403.27,242,405.37,239.07,406.94,235.11Z"/><path class="cls-1" d="M462.68,433.58c-2.87,5.78-5.68,11.59-8.51,17.38-.18.37-.52.76-.2,1.16.5.61,4.34,0,4.52-.76.69-3.07,2.86-3.4,5.58-3.11a31,31,0,0,0,4.62,0,1.81,1.81,0,0,1,1.88,1.09c1.81,3.31,1.83,3.29,6,2.75-3.21-6.36-6.35-12.69-9.6-19C466.3,431.84,463.38,432.15,462.68,433.58Zm5.07,11c-1.26.77-3.33.34-5.06.41-1,0-.87-.46-.58-1.06.89-1.83,1.77-3.67,2.88-6,.58,1.22,1,2,1.33,2.83C466.82,442.15,468.49,444.15,467.75,444.61Z"/><path class="cls-1" d="M245.27,432.38a2.15,2.15,0,0,0-2.26,1.54c-2.61,5.42-5.27,10.82-7.87,16.25-.3.61-.83,1.19-.65,2,3.82.46,3.85.47,5.6-2.76a1.8,1.8,0,0,1,1.87-1.1c2.42.06,4.84.05,7.26,0,.91,0,1.64.19,1.87,1.09.79,3.07,3,3.3,6,2.7-3.08-6.19-6.12-12.19-9-18.24C247.41,432.55,246.53,432.43,245.27,432.38ZM247.54,445c-1.67,0-3.34,0-5.14,0,.71-2.36,2-4.39,3.15-7,1.08,2.26,1.88,4.06,2.8,5.8C248.89,444.81,248.5,445,247.54,445Z"/><path class="cls-1" d="M299,433.1c-.81-1.17-3.53-1-4.2.34-1.13,2.21-2.2,4.44-3.28,6.67-1.92,4-3.82,8-5.73,12,2.93.66,5.15.38,5.79-2.78.16-.83.79-1.06,1.63-1.05q3.85.06,7.7,0a1.62,1.62,0,0,1,1.7,1c1.72,3.31,1.75,3.3,5.89,2.81-2.81-5.67-5.61-11.29-8.41-16.91A15.69,15.69,0,0,0,299,433.1ZM299,445c-1.65-.07-3.31,0-5.27,0l3.25-7c1.07,2.15,1.94,3.92,2.84,5.67C300.24,444.56,300.28,445.07,299,445Z"/><path class="cls-1" d="M443.86,447.21c-.65-.65-1.05-1.57-2.31-.37a6.77,6.77,0,0,1-9.63.05,6.31,6.31,0,0,1-.2-8.82,6.75,6.75,0,0,1,9.63-.37c1.71,1.57,2-.14,2.83-.7,1.12-.76.9-1.47-.09-2.32a11.71,11.71,0,0,0-13.13-1,10.09,10.09,0,0,0-4.71,11.72,10.75,10.75,0,0,0,10.33,7.13,11.28,11.28,0,0,0,7.82-2.84C445.76,448.47,444.57,447.91,443.86,447.21Z"/><path class="cls-1" d="M220.72,432.48c-2.27-.1-4.56,0-6.83,0-1.2,0-1.48.4-1.46,1.47.07,2.82,0,5.64,0,8.46h0c0,2.68.09,5.36,0,8-.06,1.46.34,2,1.93,1.91s2.58,0,2.35-1.94c-.16-1.38-.47-3.13.21-4.11s2.73-.39,4.16-.57c3.77-.48,6.22-3.11,6.15-6.76A6.55,6.55,0,0,0,220.72,432.48ZM220,442.62c-3.15.53-3.37.3-3.36-3.56,0-.14-.05-.3,0-.41.53-1-1.31-3,1.44-3.15s4.78,1.13,5,3.34A3.59,3.59,0,0,1,220,442.62Z"/><path class="cls-1" d="M396.36,268.67c-1.12,1.63-2.22,3.27-3.38,5a5.58,5.58,0,0,0,2.72-.1A84.19,84.19,0,0,0,414,268.23c5.42-2.26,4.1-1.1,4.14-6.41,0-.05-.06-.11-.17-.32a96.55,96.55,0,0,1-20.45,6.25A1.82,1.82,0,0,0,396.36,268.67Z"/><path class="cls-1" d="M277.5,432.42q-6.06.19-12.12,0c-1.57,0-1.74.54-1.75,1.81s.3,2,1.8,1.76c.57-.08,1.18.06,1.76,0,1.67-.21,2.11.48,2.08,2-.09,4.29.06,8.59,0,12.89,0,1.85,1.26,1.33,2.24,1.36s2.12.36,2-1.33c-.11-2.25,0-4.51,0-6.76,0-1.41,0-2.82,0-4.23,0-3.89,0-4,4.12-4,1.52,0,1.6-.57,1.6-1.73S279.11,432.37,277.5,432.42Z"/><path class="cls-1" d="M397.37,252q2.1-3.66,4.23-7.32a121.65,121.65,0,0,1-15.19,3.65c-3.18.47-3.11.46-3.06,3.56,0,1.27.39,1.74,1.75,1.7a72.94,72.94,0,0,0,10.54-.84C396.25,252.62,397,252.66,397.37,252Z"/><path class="cls-1" d="M412.36,432.47c-.93,0-2.29-.58-2.21,1.32.12,2.88,0,5.76,0,8.64h0c0,2.82.09,5.63,0,8.44-.07,1.58.88,1.52,1.94,1.4s2.45.64,2.43-1.39q-.1-8.53,0-17.08C414.61,431.94,413.32,432.46,412.36,432.47Z"/><path class="cls-1" d="M418.27,248.4c.09-3.31.23-6.62.33-9.92,0-.45.26-1.08-.42-1.26-.49-.13-.77.33-1,.68-3.37,4.89-6.72,9.78-10.29,15a69.5,69.5,0,0,0,10.47-3C418.11,249.6,418.25,249.1,418.27,248.4Z"/><path class="cls-1" d="M200.56,441.31a21,21,0,0,0-2.82-.38,182.18,182.18,0,0,0-20.23.95,18.25,18.25,0,0,0-2.57.59,2.58,2.58,0,0,0,2.12.95,194.78,194.78,0,0,0,21.33.9,11.33,11.33,0,0,0,2.16-.36,1.46,1.46,0,0,0,1.34-1.45C201.87,441.78,201.25,441.43,200.56,441.31Z"/><path class="cls-1" d="M485.18,441c-1.44.05-3.73-.18-3.68,1.7s2.31,1.59,3.78,1.63a133.91,133.91,0,0,0,16-.57c2.27-.19,4.65,0,6.81-1.41-.7-.14-1.39-.35-2.1-.42A157.69,157.69,0,0,0,485.18,441Z"/><path class="cls-1" d="M395.58,254.55a49.26,49.26,0,0,1-10.71.85c-1.14-.05-1.55.27-1.5,1.4.08,2.15,0,4.29,0,6.78C388.2,261.21,393.75,260.43,395.58,254.55Z"/><path class="cls-1" d="M401.52,261.61a78.32,78.32,0,0,0,13.39-3.46c3.39-1.1,3.39-1.09,3.2-5A33.52,33.52,0,0,1,407,257,5.85,5.85,0,0,0,401.52,261.61Z"/><path class="cls-1" d="M383.45,275.68l4.17-6.95a20,20,0,0,1-2.61.16c-1.47-.14-1.83.48-1.78,1.8.06,1.6-.15,3.21-.24,4.81Z"/><rect class="cls-2" width="678" height="678"/></g></g></svg>