<svg xmlns="http://www.w3.org/2000/svg" xmlns:xlink="http://www.w3.org/1999/xlink" viewBox="0 0 322.68 351.81"><defs><style>.cls-1{fill:url(#Degradado_sin_nombre_56);}.cls-2{fill:url(#Degradado_sin_nombre_56-2);}.cls-3{fill:url(#Degradado_sin_nombre_56-3);}.cls-4{fill:url(#Degradado_sin_nombre_56-4);}.cls-5{fill:url(#Degradado_sin_nombre_56-5);}.cls-6{fill:url(#Degradado_sin_nombre_56-6);}.cls-7{fill:url(#Degradado_sin_nombre_56-7);}.cls-8{fill:url(#Degradado_sin_nombre_56-8);}.cls-9{fill:url(#Degradado_sin_nombre_56-9);}.cls-10{fill:url(#Degradado_sin_nombre_56-10);}.cls-11{fill:url(#Degradado_sin_nombre_56-11);}.cls-12{fill:url(#Degradado_sin_nombre_56-12);}.cls-13{fill:url(#Degradado_sin_nombre_56-13);}.cls-14{fill:url(#Degradado_sin_nombre_56-14);}.cls-15{fill:url(#Degradado_sin_nombre_56-15);}.cls-16{fill:url(#Degradado_sin_nombre_48);}.cls-17{fill:url(#Degradado_sin_nombre_48-2);}.cls-18{fill:url(#Degradado_sin_nombre_48-3);}.cls-19{fill:url(#Degradado_sin_nombre_48-4);}.cls-20{fill:url(#Degradado_sin_nombre_48-5);}.cls-21{fill:url(#Degradado_sin_nombre_48-6);}.cls-22{fill:url(#Degradado_sin_nombre_48-7);}.cls-23{fill:url(#Degradado_sin_nombre_48-8);}.cls-24{fill:url(#Degradado_sin_nombre_48-9);}.cls-25{fill:url(#Degradado_sin_nombre_48-10);}.cls-26{fill:url(#Degradado_sin_nombre_48-11);}.cls-27{fill-rule:evenodd;fill:url(#Degradado_sin_nombre_42);}.cls-28{fill:url(#Degradado_sin_nombre_64);}.cls-29{fill:url(#Degradado_sin_nombre_64-2);}.cls-30{fill:url(#Degradado_sin_nombre_64-3);}.cls-31{fill:url(#Degradado_sin_nombre_64-4);}.cls-32{fill:url(#Degradado_sin_nombre_64-5);}</style><linearGradient id="Degradado_sin_nombre_56" x1="185.75" y1="308.97" x2="185.75" y2="308.96" gradientUnits="userSpaceOnUse"><stop offset="0.26" stop-color="#9a2e18"/><stop offset="0.75" stop-color="#bc3b18"/><stop offset="1" stop-color="#d45415"/></linearGradient><linearGradient id="Degradado_sin_nombre_56-2" x1="183.14" y1="325.29" x2="183.14" y2="300.26" xlink:href="#Degradado_sin_nombre_56"/><linearGradient id="Degradado_sin_nombre_56-3" x1="82.28" y1="325.29" x2="82.28" y2="300.26" xlink:href="#Degradado_sin_nombre_56"/><linearGradient id="Degradado_sin_nombre_56-4" x1="135.1" y1="325.26" x2="135.1" y2="300.28" xlink:href="#Degradado_sin_nombre_56"/><linearGradient id="Degradado_sin_nombre_56-5" x1="105.2" y1="323.31" x2="105.2" y2="323.31" xlink:href="#Degradado_sin_nombre_56"/><linearGradient id="Degradado_sin_nombre_56-6" x1="113.47" y1="325.28" x2="113.47" y2="300.26" xlink:href="#Degradado_sin_nombre_56"/><linearGradient id="Degradado_sin_nombre_56-7" x1="200.66" y1="325.3" x2="200.66" y2="300.28" xlink:href="#Degradado_sin_nombre_56"/><linearGradient id="Degradado_sin_nombre_56-8" x1="121.5" y1="313.63" x2="121.5" y2="313.44" xlink:href="#Degradado_sin_nombre_56"/><linearGradient id="Degradado_sin_nombre_56-9" x1="226.64" y1="322.93" x2="226.64" y2="322.74" xlink:href="#Degradado_sin_nombre_56"/><linearGradient id="Degradado_sin_nombre_56-10" x1="240.04" y1="325.24" x2="240.04" y2="300.26" xlink:href="#Degradado_sin_nombre_56"/><linearGradient id="Degradado_sin_nombre_56-11" x1="220.77" y1="325.32" x2="220.77" y2="300.07" xlink:href="#Degradado_sin_nombre_56"/><linearGradient id="Degradado_sin_nombre_56-12" x1="97.72" y1="325.33" x2="97.72" y2="300.23" xlink:href="#Degradado_sin_nombre_56"/><linearGradient id="Degradado_sin_nombre_56-13" x1="156.75" y1="325.25" x2="156.75" y2="300.26" xlink:href="#Degradado_sin_nombre_56"/><linearGradient id="Degradado_sin_nombre_56-14" x1="273.29" y1="314.3" x2="273.29" y2="309.03" xlink:href="#Degradado_sin_nombre_56"/><linearGradient id="Degradado_sin_nombre_56-15" x1="49.39" y1="314.3" x2="49.39" y2="309.03" xlink:href="#Degradado_sin_nombre_56"/><linearGradient id="Degradado_sin_nombre_48" x1="93.16" y1="351.81" x2="93.16" y2="334.76" gradientUnits="userSpaceOnUse"><stop offset="0.26" stop-color="#8e6523"/><stop offset="0.75" stop-color="#957620"/><stop offset="1" stop-color="#cc9846"/></linearGradient><linearGradient id="Degradado_sin_nombre_48-2" x1="107.48" y1="351.81" x2="107.48" y2="334.76" xlink:href="#Degradado_sin_nombre_48"/><linearGradient id="Degradado_sin_nombre_48-3" x1="121.48" y1="351.81" x2="121.48" y2="334.76" xlink:href="#Degradado_sin_nombre_48"/><linearGradient id="Degradado_sin_nombre_48-4" x1="134.62" y1="351.81" x2="134.62" y2="334.76" xlink:href="#Degradado_sin_nombre_48"/><linearGradient id="Degradado_sin_nombre_48-5" x1="148.78" y1="351.81" x2="148.78" y2="334.76" xlink:href="#Degradado_sin_nombre_48"/><linearGradient id="Degradado_sin_nombre_48-6" x1="163.45" y1="351.81" x2="163.45" y2="334.76" xlink:href="#Degradado_sin_nombre_48"/><linearGradient id="Degradado_sin_nombre_48-7" x1="174.62" y1="351.81" x2="174.62" y2="334.76" xlink:href="#Degradado_sin_nombre_48"/><linearGradient id="Degradado_sin_nombre_48-8" x1="185.67" y1="351.81" x2="185.67" y2="334.76" xlink:href="#Degradado_sin_nombre_48"/><linearGradient id="Degradado_sin_nombre_48-9" x1="200.11" y1="351.81" x2="200.11" y2="334.76" xlink:href="#Degradado_sin_nombre_48"/><linearGradient id="Degradado_sin_nombre_48-10" x1="215.13" y1="351.81" x2="215.13" y2="334.76" xlink:href="#Degradado_sin_nombre_48"/><linearGradient id="Degradado_sin_nombre_48-11" x1="229.52" y1="351.81" x2="229.52" y2="334.76" xlink:href="#Degradado_sin_nombre_48"/><linearGradient id="Degradado_sin_nombre_42" x1="257.23" y1="191.07" x2="86.96" y2="-6.87" gradientUnits="userSpaceOnUse"><stop offset="0.26" stop-color="#d33f19"/><stop offset="0.75" stop-color="#dd7f25"/><stop offset="1" stop-color="#e7b080"/></linearGradient><radialGradient id="Degradado_sin_nombre_64" cx="332.6" cy="274.36" r="404.22" gradientTransform="matrix(-0.98, 0.2, -0.06, -0.29, 674.96, 287.8)" gradientUnits="userSpaceOnUse"><stop offset="0.03" stop-color="#90908f"/><stop offset="1" stop-color="#fff"/></radialGradient><radialGradient id="Degradado_sin_nombre_64-2" cx="332.6" cy="274.36" r="404.22" xlink:href="#Degradado_sin_nombre_64"/><radialGradient id="Degradado_sin_nombre_64-3" cx="332.6" cy="274.36" r="404.22" xlink:href="#Degradado_sin_nombre_64"/><radialGradient id="Degradado_sin_nombre_64-4" cx="332.6" cy="274.36" r="404.22" xlink:href="#Degradado_sin_nombre_64"/><radialGradient id="Degradado_sin_nombre_64-5" cx="332.6" cy="274.36" r="404.22" xlink:href="#Degradado_sin_nombre_64"/></defs><title>RAWSON FIGHT CLUB LOGO</title><g id="Capa_2" data-name="Capa 2"><g id="Capa_1-2" data-name="Capa 1"><path class="cls-1" d="M185.76,309h0Z"/><path class="cls-2" d="M191.72,303v-.36c.12-.23-.07-.19-.19-.21h0a2.22,2.22,0,0,1-.81-.91l0,0-.2-.19h0a.38.38,0,0,0-.36-.23l-.2-.19h0l-.2-.19h0l-.21-.2h0l-.29-.19-.3,0v-.07H179.9a.19.19,0,0,1-.1,0l-.29.16.06.06c-.5.72-1.48,1-1.81,1.86l0,0c-.21-.1-.31,0-.39.2h0a1.17,1.17,0,0,0-.74,1c-.17,1.46-.29,2.91-.42,4.37-.46,2.57-.61,5.19-.92,7.78a7.53,7.53,0,0,0-.25,2.63l-.1.25a15.84,15.84,0,0,0-.27,2.91l-.18.81a.2.2,0,0,1,0,.13,1.74,1.74,0,0,1,.11.18l.25.26a6.52,6.52,0,0,0,1.19,1.37,2.28,2.28,0,0,0,1.69,1c1.56,0,3.12,0,4.69,0,0-.17,0-.34,0-.51a17.36,17.36,0,0,0-2,0,17.36,17.36,0,0,1,2,0c0,.17,0,.34,0,.51a21.37,21.37,0,0,0,4.23-.1,6.13,6.13,0,0,0,2.17-1.81h0l.28-.2a.13.13,0,0,0,.11-.1c-.12-.5.13-1,.13-1.47h0c0-.57,0-1.14.08-1.71.06-.19.12-.39.19-.59-.07.2-.13.4-.19.59,0,.57-.06,1.14-.08,1.71a5.6,5.6,0,0,0-.14,1.47c1-1.11.69-2.47.74-3.76.13-.76.25-1.51.38-2.26.09-.57-.1-.65-.63-.49-1.34.4-2.7.77-4.07,1.07a1,1,0,0,0-.94,1.08,7.31,7.31,0,0,1-.06,1c-.06.32,0,.83-.47.83-1.33,0-2.69.3-4-.34l.81-5.79c.3-3.1.57-6.2,1-9.28a2,2,0,0,0-.3.27,2,2,0,0,1,.3-.27c.87,0,1.73-.06,2.59,0,.49,0,1.05-.27,1.49.19,0,.39,0,.78,0,1.16a23.3,23.3,0,0,0-.35,2.49c1.81-.14,3.56-.69,5.38-.76l.06-.19.12-.27c0-.1,0-.2,0-.3l.21-1.94a7.5,7.5,0,0,1,.22-2.31A1.6,1.6,0,0,0,191.72,303Z"/><path class="cls-3" d="M85.84,300.33h-6l-3.67-.05c-.18.34,0,.61.19.88a4.19,4.19,0,0,1,.18,3.38c0,.45,0,.89,0,1.34h0a44.54,44.54,0,0,0-.66,5.28.06.06,0,0,0,0,.09h0c-.36,1.69-.46,3.4-.68,5.1,0,.07,0,.14,0,.22-.07.56-.15,1.13-.23,1.7-.06.76-.08,1.53-.2,2.29a10.8,10.8,0,0,1-.82,3.71l-.28.24c-.35.54-.16.74.43.74,2.18,0,4.35.13,6.53,0l.17,0c.18-.12.19-.24,0-.39l-.19-.37a3.6,3.6,0,0,1-.49-2.5c.24-1.94.47-3.89.7-5.83h0c.24-.27,0-.92.51-.91,1.62,0,3.27-.26,4.85.33a1.13,1.13,0,0,0,1,.15,1.77,1.77,0,0,1,0,.23c.29-.27.17-.63.22-.95l0,0,.36-4.06c0-.18,0-.36,0-.53l-4.19-.05c-.66,0-1.4.33-1.94-.36.13-.46.25-.92.38-1.38.08-.92.17-1.83.24-2.75,0-.56.3-.75.87-.73.85,0,1.71,0,2.57,0H86.8a5,5,0,0,1,3.11.91c.23.14.37-.08.56-.14l.63-4.83c0-.2,0-.4,0-.6A27.8,27.8,0,0,0,85.84,300.33Z"/><path class="cls-4" d="M142.35,300.35h-.74a2.24,2.24,0,0,0-1.12,0l-.05,0h0c-.16-.2-.37-.14-.58-.1h-.41a.22.22,0,0,1-.36,0l-.59,0a1.27,1.27,0,0,1,0,.28,1.27,1.27,0,0,0,0-.28h-.37c0,.12,0,.23,0,.35l.2.2a4.58,4.58,0,0,1,.38,1.55V303l-.24,3.67h0c-.19,1-.37,2.07-.56,3.11a.7.7,0,0,0-.16.59.18.18,0,0,1-.16,0h-1l-.23.15-3.28,0a.36.36,0,0,1-.19-.4c.49-.92.2-2,.56-2.92a3.87,3.87,0,0,1,.18-1.55,8.88,8.88,0,0,1,.59-3.71c.21-.44.42-.88.64-1.31-.11-.45-.47-.37-.78-.37l-6.58,0,.54,1.31c0,.84,0,1.68,0,2.52s-.15,1.93-.22,2.89c-.18,1.25-.36,2.5-.55,3.74-.05.31-.14.62-.21.92a.31.31,0,0,1,0,.19h.08c-.15,1.36-.28,2.74-.47,4.1-.4,2.68-.39,5.42-1.17,8.05h0c-.06.08-.13.15-.19.22h.22a.16.16,0,0,0,0-.1.16.16,0,0,1,0,.1h-.22a.42.42,0,0,0-.16,0c-.09.32-.41.55-.37.93h7.32l0-.42-.34-.42h0a15.08,15.08,0,0,1-.21-1.79c.27-2.22.51-4.44.77-6.66,0-.44.18-.82.73-.81h.77l2.41.06c1.2,0,1.24.09.9,1.32v1.55h0l-.13.25a2.64,2.64,0,0,0-.25,1.68,19.2,19.2,0,0,1-.33,3.11h.31a.63.63,0,0,0,.17-.42.63.63,0,0,1-.17.42h-.31a3.59,3.59,0,0,1-.62,1.43l-.4.35c0,.11,0,.22,0,.33l7.35,0,.1-.2c-.58-.63-.43-1.45-.58-2.2,0-.51-.09-1-.14-1.52h0c.05.51.1,1,.14,1.52q.6-5.48,1.19-11l0-.39c0-.13,0-.26,0-.39.29-.62.05-1.34.41-1.94l0-.19c0-.33,0-.65-.05-1,0-.13,0-.26,0-.38l.13,0c0-.18.06-.36.08-.55a14,14,0,0,1,1.32-6.56A8.46,8.46,0,0,0,142.35,300.35Z"/><polygon class="cls-5" points="105.2 323.31 105.2 323.31 105.2 323.31 105.2 323.31"/><path class="cls-6" d="M122.24,302.4l-.2-.19-.19-.2-.19-.19-.06.06a1.91,1.91,0,0,1-.73-.62l0,0a1.8,1.8,0,0,1-.2-.19l-.19-.18-.2-.2-.19-.19-.37-.19-.06,0c-1.74-.13-3.46.15-5.19.16a6.39,6.39,0,0,0-2.5-.15l-2,0a10.44,10.44,0,0,0-2.34,2.11h0a.62.62,0,0,0-.58.59h0c-.29.21-.16.51-.18.78-.25,1.49-.5,3-.76,4.46-.08,1.13-.17,2.26-.25,3.38-.19,1.43-.38,2.85-.55,4.27-.27,2.16-.36,4.34-.78,6.48l.21.56.19.21h0l.2.19.23.2,1.1,1,.21.18h0l-.21-.18a1.09,1.09,0,0,0,0,.18l.21.21h.18l.2.18.18.21a.3.3,0,0,1,0-.13,27,27,0,0,0,6.23-.07c.25.29.59.18.9.18.86,0,1.71,0,2.57,0l.18,0,.22-.16.33-.23.24-.19h0l.21-.19h0l.2-.17,0,0,.17-.17.52-.43.24-.2h0l.2-.2h0l.2-.2h0l.21-.2c.38-.05.39-.33.37-.62l0-.33c.29-2.49.57-5,.84-7.46.08-.67.1-1.34.15-2,.06-.06.11-.13.17-.2a1.36,1.36,0,0,0,0-.2c0-.38,0-.77,0-1.15l-.45-.1c-1.67,0-3.34,0-5,.09-.78,0-1.81-.42-2.25.17a4,4,0,0,0-.33,2.43h0c-.5,1.5-.38,1.68,1.08,1.69l1,0c-.25,1.73-.51,3.46-.77,5.19a26.3,26.3,0,0,1-3.66,0l-.2.06h0c-.54,0-.74-.19-.64-.84a25.82,25.82,0,0,0,.48-4l-.4-.23.11-.4c0,.14-.07.27-.11.4l.4.23.14-.08c.2-2,.39-4.1.59-6.15l.18-.58,0-.77c0-.19.08-.38.13-.57l.21-2.15-.21.22.21-.22a11.26,11.26,0,0,1,4.48,0l0,.41s0,0,0,.05,0,.08,0,.12c-.06.71-.13,1.42-.19,2.13-.19.36-.18.66.32.55a5.08,5.08,0,0,0,1.54-.31,10.74,10.74,0,0,0,2.63-.45l.71,0,0,0a.41.41,0,0,0,.24-.35l0,0a2,2,0,0,0,.14-.25l.24-2.65c0-.52.06-1,.08-1.56,0-.18-.11-.35-.17-.52Zm-2.5-2h0l.31.11Z"/><path class="cls-7" d="M206,320l-.33.07a3.47,3.47,0,0,1-1.95.57l-2.6,0c-1.1,0-1.22-.13-1-1.23a36.17,36.17,0,0,0,.56-4.86c.44-2.79.73-5.6,1-8.41v-.29a1.31,1.31,0,0,0,.15-.87c.3-1.27.23-2.65,1.14-3.73,0-.31.35-.55.2-.89l-1.55,0h-5.21a2.42,2.42,0,0,1,0,.47,2.42,2.42,0,0,0,0-.47l-.38,0a1,1,0,0,0,.2.76,6.56,6.56,0,0,1,.3,2.95c-.16.89-.23,1.79-.35,2.68a.71.71,0,0,0-.13.64.2.2,0,0,1,0,.13c0,.56,0,1.12,0,1.68h0a31.13,31.13,0,0,0-.61,4.89h0a2.13,2.13,0,0,0-.13.46c-.31,3.16-.59,6.31-1.15,9.44-.18.1-.2.29-.25.46l-.34.11c-.07.25-.14.5-.2.75h12.19a3.63,3.63,0,0,1,.57,0c1,.19,1.28-.35,1.38-1.17l.33-2.54,0-.36a4.81,4.81,0,0,1,.17-1.77c0-.12,0-.24,0-.37s.05-.06,0-.06l-.1-.11A8.85,8.85,0,0,0,206,320Z"/><path class="cls-8" d="M121.47,313.63l0-.05c0-.05,0-.09,0-.14A1.28,1.28,0,0,0,121.47,313.63Z"/><path class="cls-9" d="M226.76,322.93l-.14-.19a.91.91,0,0,0-.11.16Z"/><path class="cls-10" d="M247,300.45c-.37-.29-.8-.16-1.2-.15h-.59l-7.17,0h-1l-3.64,0,.32.75a7.66,7.66,0,0,1,.21,3.89,3.73,3.73,0,0,0-.15,1.52l-.39,3.1c-.28,1.67-.46,3.36-.59,5.05a15.61,15.61,0,0,1-.66,3.84l-.06.54a16.66,16.66,0,0,1-.68,5.25c0,.09-.07.18-.11.26l-.25.36-.16.33,12.91,0h0l.39-.15h0a.17.17,0,0,1,.12,0l.27-.19c.29,0,.54,0,.57-.41v0l.2-.2h0l.22-.19.19-.18.2-.19.21-.18h0l.19-.2.2-.19,0,0a2.1,2.1,0,0,0,.59-1.07c.25-2,.58-4,.63-6.08a4.17,4.17,0,0,0,.3-1.39v-.09l-.19-.28v0c-.5-.27-.58-1-1.15-1.16a.63.63,0,0,1-.2-.42c0-.27.24-.49.4-.73a1.12,1.12,0,0,0,.63-.43.23.23,0,0,0,.15-.12l.19-.26h0l.36-.23c.09-.5.19-1,.29-1.51a29.36,29.36,0,0,0,.3-3.09c0-.73.47-1.41.17-2.15.07-.45.14-.9.22-1.34C248.81,301.68,247.65,301.29,247,300.45Zm-13.8,14.15h0v0Zm8.88,5c0,.14-.07.28-.1.42a.54.54,0,0,1-.44.47,7.87,7.87,0,0,0-.84,0c-.67,0-1.35.08-2,.12a1.74,1.74,0,0,1-1.12-.15l.6-4.83c.12-.47.49-.42.85-.42l3.29,0C242.18,316.67,242.11,318.13,242,319.59Zm1.36-12.91c-.21,1.22-.41,2.44-.61,3.65a19.55,19.55,0,0,1-3.42.16c-.74,0-.59-.52-.56-.94.12-1.47.26-2.93.4-4.39l2.27-.08,1.94.06a1.21,1.21,0,0,0,.05.18C243.43,305.77,243.41,306.23,243.39,306.68Z"/><path class="cls-11" d="M229.38,300.29c-1.9,0-3.8,0-5.69,0-.53,0-.65.28-.43.67.67,1.16.41,2.36.28,3.57-.42,1.65-.41,3.36-.68,5l-.36,3.87c-.4,2.25-.55,4.52-.77,6.78-.95.48-2,.18-2.94.21-1.44,0-1.39,0-1.22-1.48.38-3.25.7-6.51,1-9.77.18-1.42.36-2.85.55-4.27a13.25,13.25,0,0,1,1-4.61c-.27-.32-.65-.2-1-.2-1.46,0-2.92,0-4.39,0-.51.07-1.07-.15-1.56.18l0,0a7.73,7.73,0,0,1,.5,3.87c0,.13,0,.26-.07.39a.4.4,0,0,0,0,.19l-.06.91,0,.24h0l0-.24-.9,6.64c-.08.74-.15,1.47-.25,2.2q-.36,2.89-.74,5.79l0,.3-.06,2,.07.36.57.41a4.3,4.3,0,0,0,4.08,2c2.51-.19,5-.05,7.55-.06l0,0H224l.26-.19h0l.2-.2h0l.2-.19h0l.2-.19c.29,0,.55,0,.55-.41l0,0,.2-.2h0l.2-.2h0l.2-.2h0c.18-.2.36-.39.53-.59a.91.91,0,0,1,.11-.16s0-.09,0-.13h0l.14-.06.17-.27a.27.27,0,0,1,0-.12c.22-.22.18-.51.21-.79l.16-.18-.17,0-.05,0c0-.51.07-1,.13-1.53.3-2.9.73-5.79.85-8.7a28.64,28.64,0,0,0,.55-5,13.87,13.87,0,0,1,.8-4c.13-.32.24-.66.38-1C230,300.52,230,300.29,229.38,300.29Z"/><path class="cls-12" d="M102.87,300.5a1.55,1.55,0,0,1,0-.21l-7.32-.06c-.23.62.16,1.1.38,1.61,0,.51.23,1,0,1.53,0,.13,0,.26,0,.39.29.73-.31,1.36-.22,2.09a6.31,6.31,0,0,1-.17,1.41.68.68,0,0,0-.14.58h0c-.06.77-.11,1.54-.17,2.31l.19.38c-.11.19-.28.35-.21.6a2.85,2.85,0,0,0-.18.54c-.34,2.84-.62,5.7-1,8.53-.22,1.46,0,3.06-1.12,4.3.06.24-.65.47,0,.72a60,60,0,0,0,7,0c-.08-.12-.15-.25-.23-.38h0c-.05-.13-.1-.26-.16-.39.12-.06.14-.12,0-.19a9,9,0,0,1,0-3.69c0-.16,0-.32,0-.47a2.69,2.69,0,0,0,.16-.45c.68-5.23,1.36-10.45,1.8-15.7.24-.72.15-1.55.69-2.17v0a.42.42,0,0,0,.21-.39l.18-.21h0a.36.36,0,0,0,.21-.38h0l.18-.21h0l.07,0A.44.44,0,0,0,102.87,300.5Z"/><path class="cls-13" d="M158.65,300.34h-.41l-7-.08h-.38l-1.69,0c-.21,1.75-.42,3.49-.61,5.24,0,.22-.16.55.15.68s.46-.13.68-.25c.4-.23.65-.74,1.22-.67l.63-.18h1.54c1.11,0,1.11,0,.78,1.17-.12,1.09-.23,2.19-.35,3.28.16.09.16.24.15.4h0c-.33.29-.26.72-.3,1.08-.37,3.12-.68,6.25-1.08,9.37-.19,1.44-.09,3-1,4.24a.24.24,0,0,0-.11.13l-.31.15.14.32.18-.05,7,.05c-.06-.14-.12-.27-.19-.41s0-.27,0-.41l-.14-.15h0a13.33,13.33,0,0,1-.11-2c.34-2.39.59-4.79.87-7.19l.93-8.23c0-.13,0-.26,0-.39a.4.4,0,0,0,0-.19c.12-.4,0-.89.39-1.21.85.15,1.74-.17,2.56.22l1.08.43c.81.57,1.08.46,1.2-.52.19-1.62.35-3.24.53-4.87C162.86,300.26,160.75,300.24,158.65,300.34Z"/><polygon class="cls-14" points="257.21 309.04 257.21 314.3 289.38 311.86 257.21 309.04"/><polygon class="cls-15" points="65.48 314.3 65.48 309.04 33.3 311.86 65.48 314.3"/><path class="cls-16" d="M95.65,334.76h-5a2.51,2.51,0,0,0-1.75.67,2.17,2.17,0,0,0-.75,1.65v12.4a2.15,2.15,0,0,0,.75,1.65,2.52,2.52,0,0,0,1.75.68h5a2.52,2.52,0,0,0,1.76-.68,2.18,2.18,0,0,0,.74-1.65v-6.9h-5v3.15h1.61v2.92H91.56V337.91h3.21v2.6h3.38v-3.43a2.19,2.19,0,0,0-.74-1.65A2.51,2.51,0,0,0,95.65,334.76Z"/><path class="cls-17" d="M110,334.76h-7.48v17.05h3.39v-6.08h2a1.24,1.24,0,0,1,.85.31,1.05,1.05,0,0,1,.36.8v5h3.39v-5a3.2,3.2,0,0,0-1.3-2.69,3.2,3.2,0,0,0,1.3-2.67v-4.4a2.17,2.17,0,0,0-.75-1.65A2.49,2.49,0,0,0,110,334.76Zm-.89,6.72a1,1,0,0,1-.36.77,1.21,1.21,0,0,1-.85.33h-2v-4.67h3.2Z"/><polygon class="cls-18" points="116.96 351.81 125.99 351.81 125.99 348.65 120.35 348.65 120.35 344.86 125.05 344.86 125.05 341.7 120.35 341.7 120.35 337.91 125.99 337.91 125.99 334.75 116.96 334.75 116.96 351.81"/><path class="cls-19" d="M137.11,334.76h-5a2.49,2.49,0,0,0-1.75.67,2.17,2.17,0,0,0-.75,1.65v12.4a2.15,2.15,0,0,0,.75,1.65,2.5,2.5,0,0,0,1.75.68h5a2.5,2.5,0,0,0,1.75-.68,2.15,2.15,0,0,0,.75-1.65v-6.9h-5v3.15h1.6v2.92H133V337.91h3.2v2.6h3.39v-3.43a2.17,2.17,0,0,0-.75-1.65A2.49,2.49,0,0,0,137.11,334.76Z"/><path class="cls-20" d="M151.27,334.76h-5a2.51,2.51,0,0,0-1.76.67,2.19,2.19,0,0,0-.74,1.65v12.4a2.18,2.18,0,0,0,.74,1.65,2.52,2.52,0,0,0,1.76.68h5a2.52,2.52,0,0,0,1.75-.68,2.14,2.14,0,0,0,.74-1.65v-12.4a2.16,2.16,0,0,0-.74-1.65A2.51,2.51,0,0,0,151.27,334.76Zm-.89,13.89h-3.21V337.91h3.21Z"/><path class="cls-21" d="M165.94,334.76h-7.48v17.05h3.39v-6.08h2a1.26,1.26,0,0,1,.85.31,1.05,1.05,0,0,1,.36.8v5h3.39v-5a3.22,3.22,0,0,0-1.3-2.69,3.22,3.22,0,0,0,1.3-2.67v-4.4a2.17,2.17,0,0,0-.75-1.65A2.49,2.49,0,0,0,165.94,334.76Zm-.89,6.72a1,1,0,0,1-.36.77,1.23,1.23,0,0,1-.85.33h-2v-4.67h3.2Z"/><rect class="cls-22" x="172.93" y="334.76" width="3.39" height="17.05"/><path class="cls-23" d="M183.42,334.76l-3.31,17.05h3.43l.68-3.46h2.9l.66,3.46h3.44l-3.3-17.05Zm1.42,10.44.83-7.27.82,7.27Z"/><polygon class="cls-24" points="202.15 345.79 199.38 334.75 194.68 334.75 194.68 351.81 198.07 351.81 198.07 340.82 200.85 351.81 205.54 351.81 205.54 334.75 202.15 334.75 202.15 345.79"/><path class="cls-25" d="M217.62,334.76h-5a2.49,2.49,0,0,0-1.75.67,2.17,2.17,0,0,0-.75,1.65v12.4a2.15,2.15,0,0,0,.75,1.65,2.5,2.5,0,0,0,1.75.68h5a2.5,2.5,0,0,0,1.75-.68,2.15,2.15,0,0,0,.75-1.65v-12.4a2.17,2.17,0,0,0-.75-1.65A2.49,2.49,0,0,0,217.62,334.76Zm-.89,13.89h-3.2V337.91h3.2Z"/><path class="cls-26" d="M234.51,340.51v-3.43a2.17,2.17,0,0,0-.75-1.65,2.49,2.49,0,0,0-1.75-.67h-5a2.49,2.49,0,0,0-1.75.67,2.17,2.17,0,0,0-.75,1.65v3.52a3.83,3.83,0,0,0,1.49,3.14,5.42,5.42,0,0,0,3.5,1.12c1.07,0,1.6.37,1.6,1.1v2.69h-3.2V346h-3.39v3.44a2.15,2.15,0,0,0,.75,1.65,2.5,2.5,0,0,0,1.75.68h5a2.5,2.5,0,0,0,1.75-.68,2.15,2.15,0,0,0,.75-1.65V346a3.83,3.83,0,0,0-1.49-3.14,5.42,5.42,0,0,0-3.5-1.12c-1.07,0-1.6-.37-1.6-1.1v-2.69h3.2v2.6Z"/><path class="cls-27" d="M157.61,8c2.71-2.88,8-1.29,11.86.11A54.34,54.34,0,0,1,183,15.49c10.3,7.46,13.14,11,20.56,19.64,3.9,4.53,6.4,9.92,9.79,14.77.6.87,1.23,2.07,1.71,3a58,58,0,0,1,3,6.24c1.84,4.69,2.47,9.81,3.54,14.77.57,2.62.85,5,1.56,7.52,3.21,11.35-2.44,12-4,21.55-.63,3.74,1.38,5.66,3.68,7.69,6.48,5.72,9.18,13.05,17.29,18.07,11.69,7.23,5.36,10.05,4.61,14.55,0,.28.25,2.14.32,2.84.47,5.25-2,3.83-2.75,7.81.91-.06,1.74-.16,2.65-.22-.15,1.84.16,2.95-.21,5.17-.29,1.72-.87,2.16-.75,3.58s.82,1.9.6,3.22c-.59,3.5-1.69,6.21-2.27,9.7-.32,1.93,1.85,4.56,1.22,8.33-1,5.77-4.49,6.45-6.35,8.4l-.38,0c1.88-1.34,4.26-2.72,5-7.3.63-3.77-1.54-6.4-1.22-8.32.58-3.49,1.68-6.21,2.27-9.7.22-1.33-.47-1.86-.6-3.23s.46-1.85.75-3.57c.37-2.23.06-3.33.21-5.17-.91.06-1.74.15-2.65.21.76-4,3.22-2.55,2.75-7.8-.07-.7-.37-2.57-.32-2.85.75-4.49,7.08-7.31-4.61-14.55-8.11-5-10.81-12.35-17.29-18.06-2.3-2-4.31-4-3.68-7.7,1.58-9.51,7.23-10.19,4-21.54-.71-2.53-1-4.91-1.56-7.53-1.07-5-1.7-10.08-3.54-14.76a57.1,57.1,0,0,0-3-6.24,32.93,32.93,0,0,0-1.71-3c-3.39-4.84-5.89-10.24-9.8-14.76-7.41-8.59-10.25-12.18-20.55-19.64a54.87,54.87,0,0,0-13.54-7.36c-3.15-1.14-7.27-2.41-10.15-1.26Zm-82-6.36a5.57,5.57,0,0,1,3.32-.43,24.58,24.58,0,0,1,9.23,4L92.89,9.4l21.45,25.69c6.78,7.5,15.08,16.62,24.33,21.42,3,1.53,5.65,2.1,9,3.36,8.21,3.12,14.27,8.07,20,14.49,2.48,2.79,7.78,9.53,8.9,12.89l2.23.37a16.56,16.56,0,0,0-3.5-6.15,14.91,14.91,0,0,1-1.48-1.73c-1.31-1.84-2.65-3.8-3.8-5.8-.22-.27-.44-.51-.63-.73-5.69-6.43-11.75-11.38-20-14.5-3.32-1.26-6-1.83-9-3.36-9.25-4.8-17.55-13.92-24.33-21.41L94.6,8.24,89.86,4.09a24.58,24.58,0,0,0-9.23-4,5.85,5.85,0,0,0-5,1.59ZM227.74,193.84a11,11,0,0,0-.76,1.62,6.45,6.45,0,0,1-3.22,3.29,5.54,5.54,0,0,0,1.51-2.13c.85-2.19,1.41-2.65,2.47-2.78Zm-45-55.83c-1.19,7.15,10.69,9.57,16.2,10.48-.16-2.35-3.58-6.75-5.55-8.59-2.17-2-5.89-4.68-9.76-5.32l-.89,3.43ZM159.9,16.83c-1.63,9.77,6,19.43,11.14,26.63a15.23,15.23,0,0,1,3.15,6.39c1.73,6.27.23,9,2.28,15.66.53,1.71,1.89,5.21,3,6.23a6.49,6.49,0,0,0,2.27-1.9c1.82,1.71,3.68,5.27,5,7.56,9.32,15.69,2.22,11.51,1,18.8l20.9,5.73c.68-1,1.25-2.1,1.9-3.22a26.31,26.31,0,0,0,1.8-3.32c1.07.44,1,.81,2.12,1s2.43-2.81,2.64-4.11c.75-4.49-.92-10.15-1.7-13.84-.5-2.32-.67-4.43-1.11-6.74-2.12-10.92-9.08-24.6-15.75-33.93a73.81,73.81,0,0,0-8.43-9.05c-1.66-1.55-3-2.68-4.78-4.12a109.79,109.79,0,0,0-10.28-7.72c-2.3-1.45-10.1-4.73-13.35-5.27a17.63,17.63,0,0,0-1.84,5.22ZM127.92,128c5.78,8.09,5.59,10.71,14.38,17.42.34-.34,3.44-7.51,3.81-7.8,2.41-1.9,3.87-3,6.35-3.75-.49,1.94-2.35,4.1-3.31,5.91-7.8,14.7,3.58,11.15,4.12,16.65-1.63.47-3,.06-4.66.53.57,1.7.73,2.47,2.17,3.75,3.15,2.82,10.6,4.16,14.93,5.25-.79,1.11-2.19,2.1-2.54,3.48,1,.43.83.49,1.62,1.08,4.46,3.27,9.92,3.76,15.37,4.66-.83,2-2.06,3-3.33,4.32,1,.73,4.57,1.74,6.11,2.33,5.48,2.12,11.19,4.92,15,9.1,2.81,3.07,3.77,5.77,9.68,5.74,4.33,0,8-1.23,11.43-2.38C218.54,189,203.37,190,198,186c-1.56-1.17-3.64-2.74-3.77-4.84,6.44-1.86,22.22,9.33,27.73,4.34,1.79-1.62,1.35-4.15.48-6-1.81-3.92-10.55-6.38-9.12-15l2.18,1.79a24.06,24.06,0,0,0,1.8,2.07c3.18,2.91,13.14,7.73,16.75,4.86.13,1.83,6.91-5.65,3.92-8.87-.29-1-.33-1.52-.61-2.49-3.28-11.05.14-9.38.08-19,0-6.77-5.67-10.95-9.94-14.94-2.38-2.22-4-4.38-6.17-6.75-5.8-6.29-11.67-10.75-20-13.62a48.14,48.14,0,0,0-5.35-1.48c.25,2.66,4.14,4.28,4.39,6.9-5.2-.86-17-6.79-20.2-9.3-15-11.59-7.8-22.59-32.77-35.74-3.28-1.73-6.66-3.08-9.92-4.65a56.32,56.32,0,0,1-16.68-11.8c-1.31-1.36-2.1-2.4-3.29-3.79-5.22-6.13-10.92-11.91-16.23-18l-13-14.15c-2-2.26-3.68-6.16-6.93-6.77L82.69,13,95.9,36.23c1.86,3,3.91,5.71,5.59,8.83l3.33,5.16C111.49,60.33,121,68,131.41,74.2c8.45,5,34.15,24.14,31.93,37.46-3.7-3.47-9.2-9.85-14.45-11.17a14,14,0,0,1,.11,3.27c-2.81-.53-7.6-3.75-10.26-5.23-6.59-3.66-12.15-10.29-16.76-16.22l-6.32-8a123.37,123.37,0,0,0-8.38-9.36c-6.77-7.07-13.08-11.13-22.39-15-.38,2.58,2.17,13.41,2.91,15.76,2.63,8.36,6.07,16.19,12.19,22.54,8.25,8.56,19,14,30,18.76,1.62.69,15.62,6.4,15.72,6.56.7,1.1-2.41,6.77-3,7.6a15,15,0,0,1-5.3,5.08,19.45,19.45,0,0,1-3.41,1.48c-.71.25-5.57-.1-6.1.33Zm101.56,60.53a8.83,8.83,0,0,0,7.75-2.47c5-5.61-8.34-10.94-11.5,1.53,1.6.26,1.62.59,3.75.94Zm-18.8-26.18c-.24-3.77-3.77-9.65-5.49-13.65-1-2.38-1.8-4.23-3-6.52a37.75,37.75,0,0,0-14.78-16,53.94,53.94,0,0,0-16-6.13c-.14,1.74,1.08,5.66,1.49,7.58,1.57,7.23-1,17,5.81,22.34,3.93,3.11,11.23,3.83,16.83,5.57C201.42,157.47,208.5,162,210.68,162.39Z"/><path class="cls-28" d="M99,216.14l3.91-5.76-.06,0v0L71.1,217.29s4.9,2.84,3.68,8.05S61,282.36,60.53,284.4L48.15,264.22l8.05-9.43V226l-9-4.83h0S13.58,232.24,0,238.91l9,4.61L10.13,307l-6.67,22.3a.48.48,0,0,0,.09-.1l0,.11s14.88-18.86,27.15-26.22l-4.14-1.84L25.83,276l7.09-3.89,8.5,18.15-2.76,7.36.07-.06,0,.07s13.27-9.9,42.1-17.95l-2.07-7.36,1.15-8.52L95,261l2.31,9.19L94.8,276l.06,0v0s10.66-2,23-4.37l-4.6-3.91Zm-58.72,39.8-14.44,6.19V241.91l14.44-6Zm42.16-4.27,5-24.47,5.15,22.53Z"/><path class="cls-29" d="M163.64,206.18h-.06l2.42,4.2-3.94,32.89-6.36-32.89,3.26-4.2h-.06l-17.75.87,2.42,3.33-5.15,32.21-5.84-31.23,3.8-4.31h-.06l-26.06,3.33a8.25,8.25,0,0,1,4.66,5.12c1.1,3.8,14,54.36,14,54.36H129l14.67-.69,6.18-33.49,6,32.45,13.46.35h.06l11-58.1,4-4.2H163.64Z"/><path class="cls-30" d="M193.09,206.18l-7.42,5.35s.06,16.17,0,20.19,6.9,7.94,6.9,7.94l18,7.77.17,12.94-10.52-1.55-.52-9.67-14-1.21v15l6.39,6.9a141.71,141.71,0,0,1,25.88,3.28l5.35-6.73V242.77l-7.08-6.39L199.82,229V217.57l10.18.69.18,8.63L223.29,229V214.64l-6-6.56Z"/><path class="cls-31" d="M238,210.85,231.05,216v51.6l6.74,7.94s19.9,5.12,24.5,7.76l7.59-5.35V223.62L263.5,216Zm17.66,57-10.82-3.45V223.73l11.74,2.3Z"/><path class="cls-32" d="M315.57,249.34l0-5.81v-1.11h0c.1-.12,3.34-3.82,7.07-5.18,0,0-12.71-6-25.53-10.69L302,234l.51,30.2-13.8-40.9-17.08-5,5.35,7.08v58l-3.63,4.14S289.84,296,291.62,298l-2.24-8.12V259.33l14.32,46.94s16.91,16.74,19,19.67l-7.42-20.88Z"/></g></g></svg>